<?xml version="1.0" encoding="utf-8"?>
<!-- Generator: Adobe Illustrator 19.0.0, SVG Export Plug-In . SVG Version: 6.00 Build 0)  -->
<svg version="1.1" id="Layer_1" xmlns="http://www.w3.org/2000/svg" xmlns:xlink="http://www.w3.org/1999/xlink" x="0px" y="0px"
	 viewBox="0 0 1400 980" style="enable-background:new 0 0 1400 980;" xml:space="preserve">
<style type="text/css">
	.st0{fill:#F9D153;}
	.st1{fill:#CA6547;}
	.st2{fill:#575757;}
	.st3{fill:#C1C1C1;}
	.st4{fill:#959494;}
	.st5{fill:#919191;}
	.st6{fill:#D8D8D8;}
	.st7{fill:#A97314;}
	.st8{fill:#8C6011;}
</style>
<g>
	<rect class="st0" width="1400" height="980"/>
	<g>
		<g>
			<g>
				<path class="st1" d="M369.5,110.8c0,0-80,26.2-80,332.5c0,239.8,48.7,375.1,70,417.9c5.9,11.9,10,6.9,10,6.9s4.1,5,10-6.9
					c21.3-42.9,70-178.1,70-417.9C449.5,137,369.5,110.8,369.5,110.8z"/>
				<g>
					<path class="st2" d="M337.9,167.6c0,0,8.2-10.5,15.4-11.6c7.2-1,34,0.8,34,0.8s11.4,4.8,13.4,10.5
						C402.8,173,337.9,167.6,337.9,167.6z"/>
					<polygon class="st2" points="351.4,198.9 349.2,179.1 390,179.1 387.5,198.9 					"/>
					<g>
						<path class="st3" d="M387.5,201.1c0,1.4-1.1,2.6-2.6,2.6H354c-1.4,0-2.6-1.1-2.6-2.6v-48.7c0-1.4,1.1-2.6,2.6-2.6h30.9
							c1.4,0,2.6,1.1,2.6,2.6V201.1z"/>
						<ellipse class="st4" cx="369.5" cy="180.9" rx="8.3" ry="18"/>
						<g>
							<g>
								<circle class="st5" cx="356.2" cy="196.2" r="2.7"/>
								<circle cx="356.2" cy="196.2" r="1.4"/>
							</g>
							<g>
								<circle class="st5" cx="382.7" cy="196.2" r="2.7"/>
								<circle cx="382.7" cy="196.2" r="1.4"/>
							</g>
						</g>
						<path class="st3" d="M387.4,153.4c0-6-11.5-13.1-11.5-13.1h-5.8h-1.3H363c0,0-11.5,7.1-11.5,13.1c0,6,0,20.7,0,20.7l17.9-1.5
							l17.9,1.5C387.4,174.1,387.4,159.4,387.4,153.4z"/>
						<path class="st2" d="M387.4,156.8c0-5-11.5-10.9-11.5-10.9h-5.8h-1.3H363c0,0-11.5,5.9-11.5,10.9c0,5,0,17.3,0,17.3l17.9-1.2
							l17.9,1.2C387.4,174.1,387.4,161.8,387.4,156.8z"/>
						<path class="st4" d="M402.9,167.6c0,0-0.7,0-2-0.3c-1.9-1.9-5.3-4.6-10.9-6.6c-0.8-0.8-1.6-1.6-2.4-2.5
							c-8.2-9.4-13.2-8.5-13.2-8.5H370h-1h-4.4c0,0-5-0.9-13.2,8.5c-0.8,0.9-1.6,1.7-2.4,2.5c-5.5,2-9,4.7-10.9,6.6
							c-1.3,0.3-2,0.3-2,0.3l1.6,0.1c-1.1,1.2-1.6,2-1.6,2l22.1,2.7c0,0,1-1.4,2.1-3.3l8.7,0.6v0.1l0.5,0l0.5,0v-0.1l8.7-0.6
							c1.1,1.9,2.1,3.3,2.1,3.3l22.1-2.7c0,0-0.5-0.8-1.6-2L402.9,167.6z"/>
						<path class="st3" d="M397.4,168.4c0,0-0.6,0-1.7-0.3c-1.6-1.6-4.5-3.8-9.1-5.5c-0.6-0.6-1.3-1.3-2-2.1c-6.8-7.9-11-7.1-11-7.1
							h-3.7H369h-3.7c0,0-4.2-0.8-11,7.1c-0.7,0.8-1.3,1.5-2,2.1c-4.6,1.7-7.5,3.9-9.1,5.5c-1.1,0.3-1.7,0.3-1.7,0.3l1.4,0.1
							c-1,1-1.4,1.7-1.4,1.7l18.5,2.3c0,0,0.8-1.2,1.7-2.8l7.3,0.5v0.1l0.4,0l0.4,0v-0.1l7.3-0.5c0.9,1.6,1.7,2.8,1.7,2.8l18.5-2.3
							c0,0-0.4-0.7-1.4-1.7L397.4,168.4z"/>
						<g>
							<ellipse class="st4" cx="369.5" cy="179.1" rx="8.3" ry="5.1"/>
							<rect x="361.1" y="161.2" class="st4" width="16.7" height="18"/>
							<ellipse class="st2" cx="369.5" cy="161.2" rx="8.3" ry="5.1"/>
						</g>
						<rect x="316.9" y="167.6" class="st6" width="105.1" height="11.7"/>
						<g>
							<g>
								<rect x="292.5" y="148.3" class="st7" width="22.1" height="50.3"/>
								<g>
									<polygon class="st8" points="287.8,190.9 292.5,198.6 292.5,148.3 287.8,156 									"/>
									<polygon class="st8" points="319.3,190.9 314.6,198.6 314.6,148.3 319.3,156 									"/>
								</g>
							</g>
							<g>
								<rect x="424.3" y="148.3" class="st7" width="22.1" height="50.3"/>
								<g>
									<polygon class="st8" points="419.7,190.9 424.3,198.6 424.3,148.3 419.7,156 									"/>
									<polygon class="st8" points="451.1,190.9 446.4,198.6 446.4,148.3 451.1,156 									"/>
								</g>
							</g>
						</g>
					</g>
				</g>
				<g>
					<path class="st2" d="M401,744.8c0,0-8.2,10.5-15.4,11.6c-7.2,1.1-34-0.8-34-0.8s-11.4-4.8-13.4-10.5
						C336.1,739.5,401,744.8,401,744.8z"/>
					<polygon class="st2" points="387.5,713.6 389.7,733.3 348.9,733.3 351.4,713.6 					"/>
					<g>
						<path class="st3" d="M351.4,711.3c0-1.4,1.1-2.6,2.6-2.6h30.9c1.4,0,2.6,1.1,2.6,2.6V760c0,1.4-1.1,2.6-2.6,2.6H354
							c-1.4,0-2.6-1.1-2.6-2.6V711.3z"/>
						<ellipse class="st4" cx="369.5" cy="731.5" rx="8.3" ry="18"/>
						<g>
							<g>
								<circle class="st5" cx="382.7" cy="716.3" r="2.7"/>
								<circle cx="382.7" cy="716.3" r="1.4"/>
							</g>
							<g>
								<path class="st5" d="M353.5,716.3c0-1.5,1.2-2.7,2.7-2.7c1.5,0,2.7,1.2,2.7,2.7c0,1.5-1.2,2.7-2.7,2.7
									C354.7,719,353.5,717.7,353.5,716.3z"/>
								<circle cx="356.2" cy="716.3" r="1.4"/>
							</g>
						</g>
						<path class="st3" d="M351.5,759c0,6,11.5,13.1,11.5,13.1h5.8h1.3h5.8c0,0,11.4-7.1,11.4-13.1c0-6,0-20.7,0-20.7l-17.9,1.5
							l-17.9-1.5C351.5,738.3,351.5,753,351.5,759z"/>
						<path class="st2" d="M351.5,755.6c0,5,11.5,10.9,11.5,10.9h5.8h1.3h5.8c0,0,11.4-5.9,11.4-10.9c0-5,0-17.3,0-17.3l-17.9,1.2
							l-17.9-1.2C351.5,738.3,351.5,750.6,351.5,755.6z"/>
						<path class="st4" d="M336.1,744.8c0,0,0.8,0,2,0.3c1.9,1.9,5.3,4.6,10.9,6.6c0.8,0.8,1.6,1.6,2.4,2.5
							c8.2,9.4,13.2,8.5,13.2,8.5h4.4h1h4.4c0,0,5,0.9,13.2-8.5c0.8-0.9,1.6-1.7,2.4-2.5c5.5-2,9-4.7,10.9-6.6c1.3-0.3,2-0.3,2-0.3
							l-1.6-0.1c1.1-1.2,1.6-2,1.6-2l-22.1-2.7c0,0-1,1.4-2.1,3.3l-8.7-0.6v-0.1l-0.5,0l-0.5,0v0.1l-8.7,0.6
							c-1.1-1.9-2.1-3.3-2.1-3.3l-22.1,2.7c0,0,0.5,0.8,1.6,2L336.1,744.8z"/>
						<path class="st3" d="M341.5,744c0,0,0.6,0,1.7,0.3c1.6,1.6,4.5,3.8,9.1,5.5c0.6,0.6,1.3,1.3,2,2.1c6.8,7.9,11,7.1,11,7.1h3.7
							h0.8h3.7c0,0,4.2,0.8,11-7.1c0.7-0.8,1.3-1.5,2-2.1c4.6-1.7,7.5-3.9,9.1-5.5c1.1-0.3,1.7-0.3,1.7-0.3L396,744
							c1-1,1.4-1.7,1.4-1.7l-18.5-2.3c0,0-0.8,1.2-1.7,2.8l-7.3-0.5v-0.1l-0.4,0l-0.4,0v0.1l-7.3,0.5c-0.9-1.6-1.7-2.8-1.7-2.8
							l-18.5,2.3c0,0,0.4,0.7,1.4,1.7L341.5,744z"/>
						<g>
							<ellipse class="st4" cx="369.5" cy="733.3" rx="8.3" ry="5.1"/>
							<rect x="361.1" y="733.3" class="st4" width="16.7" height="18"/>
							<ellipse class="st2" cx="369.5" cy="751.3" rx="8.3" ry="5.1"/>
						</g>
						<rect x="316.9" y="733.1" class="st6" width="105.1" height="11.7"/>
						<g>
							<g>
								<rect x="424.3" y="713.8" class="st7" width="22.1" height="50.3"/>
								<g>
									<polygon class="st8" points="451.1,721.5 446.4,713.8 446.4,764.1 451.1,756.4 									"/>
									<polygon class="st8" points="419.7,721.5 424.3,713.8 424.3,764.1 419.7,756.4 									"/>
								</g>
							</g>
							<g>
								<rect x="292.5" y="713.8" class="st7" width="22.1" height="50.3"/>
								<g>
									<polygon class="st8" points="319.3,721.5 314.6,713.8 314.6,764.1 319.3,756.4 									"/>
									<polygon class="st8" points="287.8,721.5 292.5,713.8 292.5,764.1 287.8,756.4 									"/>
								</g>
							</g>
						</g>
					</g>
				</g>
			</g>
			<g>
				<g>
					<path class="st1" d="M215.4,684.2c11-22.8-11.8-41.9-11.8-87.9c0-98.8,18.6-71.7,18.6-189.4s-60.9-129.9-60.9-129.9
						s-60.9,12.2-60.9,129.9c0,117.7,18.6,90.6,18.6,189.4c0,46-22.8,65.2-11.8,87.9c10.8,22.5,54.1,18.7,54.1,18.7
						S204.5,706.7,215.4,684.2z"/>
					<g>
						<g>
							<path class="st2" d="M134,357.7c0,0,7.1-9.1,13.3-10c6.2-0.9,29.4,0.7,29.4,0.7s9.8,4.1,11.6,9
								C190.1,362.3,134,357.7,134,357.7z"/>
							<polygon class="st2" points="145.7,384.7 143.8,367.6 179,367.6 176.8,384.7 							"/>
							<g>
								<path class="st3" d="M176.8,386.6c0,1.2-1,2.2-2.2,2.2h-26.7c-1.2,0-2.2-1-2.2-2.2v-42c0-1.2,1-2.2,2.2-2.2h26.7
									c1.2,0,2.2,1,2.2,2.2V386.6z"/>
								<ellipse class="st4" cx="161.2" cy="369.1" rx="7.2" ry="15.5"/>
								<g>
									<g>
										<circle class="st5" cx="149.8" cy="382.3" r="2.3"/>
										<circle cx="149.8" cy="382.3" r="1.2"/>
									</g>
									<g>
										<circle class="st5" cx="172.7" cy="382.3" r="2.3"/>
										<circle cx="172.7" cy="382.3" r="1.2"/>
									</g>
								</g>
								<path class="st3" d="M176.7,345.4c0-5.2-9.9-11.3-9.9-11.3h-5h-1.1h-5c0,0-9.9,6.1-9.9,11.3c0,5.2,0,17.9,0,17.9l15.5-1.3
									l15.5,1.3C176.7,363.3,176.7,350.6,176.7,345.4z"/>
								<path class="st2" d="M176.7,348.3c0-4.3-9.9-9.4-9.9-9.4h-5h-1.1h-5c0,0-9.9,5.1-9.9,9.4c0,4.3,0,14.9,0,14.9l15.5-1.1
									l15.5,1.1C176.7,363.3,176.7,352.7,176.7,348.3z"/>
								<path class="st4" d="M190.1,357.7c0,0-0.6,0-1.8-0.3c-1.7-1.7-4.6-4-9.4-5.7c-0.7-0.6-1.4-1.4-2-2.2
									c-7.1-8.1-11.4-7.3-11.4-7.3h-3.8h-0.9H157c0,0-4.3-0.8-11.4,7.3c-0.7,0.8-1.4,1.5-2,2.2c-4.8,1.7-7.7,4-9.4,5.7
									c-1.1,0.3-1.8,0.3-1.8,0.3l1.4,0.1c-1,1.1-1.4,1.8-1.4,1.8l19.1,2.3c0,0,0.9-1.2,1.8-2.9l7.6,0.5v0.1l0.4,0l0.4,0v-0.1
									l7.6-0.5c0.9,1.6,1.8,2.9,1.8,2.9l19.1-2.3c0,0-0.4-0.7-1.4-1.8L190.1,357.7z"/>
								<path class="st3" d="M185.4,358.3c0,0-0.5,0-1.5-0.2c-1.4-1.4-3.9-3.3-7.9-4.7c-0.6-0.5-1.1-1.1-1.7-1.8
									c-5.9-6.8-9.5-6.1-9.5-6.1h-3.2h-0.7h-3.2c0,0-3.6-0.7-9.5,6.1c-0.6,0.7-1.1,1.3-1.7,1.8c-4,1.4-6.5,3.4-7.9,4.7
									c-0.9,0.2-1.5,0.2-1.5,0.2l1.2,0.1c-0.8,0.9-1.2,1.5-1.2,1.5l15.9,1.9c0,0,0.7-1,1.5-2.4l6.3,0.4v0l0.4,0l0.4,0v0l6.3-0.4
									c0.8,1.4,1.5,2.4,1.5,2.4l15.9-1.9c0,0-0.4-0.6-1.2-1.5L185.4,358.3z"/>
								<g>
									<ellipse class="st4" cx="161.2" cy="367.6" rx="7.2" ry="4.4"/>
									<rect x="154" y="352.1" class="st4" width="14.4" height="15.5"/>
									<ellipse class="st2" cx="161.2" cy="352.1" rx="7.2" ry="4.4"/>
								</g>
								<rect x="115.9" y="357.7" class="st6" width="90.7" height="10.1"/>
								<g>
									<g>
										<rect x="94.8" y="341" class="st7" width="19.1" height="43.4"/>
										<g>
											<polygon class="st8" points="90.8,377.8 94.8,384.4 94.8,341 90.8,347.7 											"/>
											<polygon class="st8" points="117.9,377.8 113.9,384.4 113.9,341 117.9,347.7 											"/>
										</g>
									</g>
									<g>
										<rect x="208.6" y="341" class="st7" width="19.1" height="43.4"/>
										<g>
											<polygon class="st8" points="204.6,377.8 208.6,384.4 208.6,341 204.6,347.7 											"/>
											<polygon class="st8" points="231.7,377.8 227.7,384.4 227.7,341 231.7,347.7 											"/>
										</g>
									</g>
								</g>
							</g>
						</g>
						<g>
							<path class="st2" d="M188.5,642.3c0,0-7.1,9.1-13.3,10c-6.2,0.9-29.4-0.7-29.4-0.7s-9.8-4.1-11.6-9
								C132.4,637.7,188.5,642.3,188.5,642.3z"/>
							<polygon class="st2" points="176.8,615.3 178.7,632.4 143.5,632.4 145.7,615.3 							"/>
							<g>
								<path class="st3" d="M145.7,613.4c0-1.2,1-2.2,2.2-2.2h26.7c1.2,0,2.2,1,2.2,2.2v42c0,1.2-1,2.2-2.2,2.2h-26.7
									c-1.2,0-2.2-1-2.2-2.2V613.4z"/>
								<ellipse class="st4" cx="161.3" cy="630.9" rx="7.2" ry="15.5"/>
								<g>
									<g>
										<circle class="st5" cx="172.7" cy="617.7" r="2.3"/>
										<circle cx="172.7" cy="617.7" r="1.2"/>
									</g>
									<g>
										<circle class="st5" cx="149.8" cy="617.7" r="2.3"/>
										<circle cx="149.8" cy="617.7" r="1.2"/>
									</g>
								</g>
								<path class="st3" d="M145.8,654.6c0,5.2,9.9,11.3,9.9,11.3h5h1.1h5c0,0,9.9-6.1,9.9-11.3c0-5.2,0-17.9,0-17.9l-15.5,1.3
									l-15.5-1.3C145.8,636.7,145.8,649.4,145.8,654.6z"/>
								<path class="st2" d="M145.8,651.7c0,4.3,9.9,9.4,9.9,9.4h5h1.1h5c0,0,9.9-5.1,9.9-9.4c0-4.3,0-14.9,0-14.9l-15.5,1.1
									l-15.5-1.1C145.8,636.7,145.8,647.3,145.8,651.7z"/>
								<path class="st4" d="M132.4,642.3c0,0,0.6,0,1.8,0.3c1.7,1.7,4.6,4,9.4,5.7c0.7,0.6,1.4,1.4,2,2.2
									c7.1,8.1,11.4,7.3,11.4,7.3h3.8h0.9h3.8c0,0,4.3,0.8,11.4-7.3c0.7-0.8,1.4-1.5,2-2.2c4.8-1.7,7.7-4,9.4-5.7
									c1.1-0.3,1.8-0.3,1.8-0.3l-1.4-0.1c1-1.1,1.4-1.8,1.4-1.8l-19.1-2.3c0,0-0.9,1.2-1.8,2.9l-7.6-0.5v-0.1l-0.4,0l-0.4,0v0.1
									l-7.6,0.5c-0.9-1.6-1.8-2.9-1.8-2.9l-19.1,2.3c0,0,0.4,0.7,1.4,1.8L132.4,642.3z"/>
								<path class="st3" d="M137.1,641.7c0,0,0.5,0,1.5,0.2c1.4,1.4,3.9,3.3,7.9,4.7c0.6,0.5,1.1,1.1,1.7,1.8
									c5.9,6.8,9.5,6.1,9.5,6.1h3.2h0.7h3.2c0,0,3.6,0.7,9.5-6.1c0.6-0.7,1.1-1.3,1.7-1.8c4-1.4,6.5-3.4,7.9-4.7
									c0.9-0.2,1.5-0.2,1.5-0.2l-1.2-0.1c0.8-0.9,1.2-1.5,1.2-1.5l-15.9-1.9c0,0-0.7,1-1.5,2.4l-6.3-0.4v0l-0.4,0l-0.4,0v0
									l-6.3,0.4c-0.8-1.4-1.5-2.4-1.5-2.4l-15.9,1.9c0,0,0.4,0.6,1.2,1.5L137.1,641.7z"/>
								<g>
									<ellipse class="st4" cx="161.3" cy="632.4" rx="7.2" ry="4.4"/>
									<rect x="154" y="632.4" class="st4" width="14.4" height="15.5"/>
									<ellipse class="st2" cx="161.3" cy="647.9" rx="7.2" ry="4.4"/>
								</g>
								<rect x="115.9" y="632.2" class="st6" width="90.7" height="10.1"/>
								<g>
									<g>
										<rect x="208.6" y="615.6" class="st7" width="19.1" height="43.4"/>
										<g>
											<polygon class="st8" points="231.7,622.2 227.7,615.6 227.7,659 231.7,652.3 											"/>
											<polygon class="st8" points="204.6,622.2 208.6,615.6 208.6,659 204.6,652.3 											"/>
										</g>
									</g>
									<g>
										<rect x="94.8" y="615.6" class="st7" width="19.1" height="43.4"/>
										<g>
											<polygon class="st8" points="117.9,622.2 113.9,615.6 113.9,659 117.9,652.3 											"/>
											<polygon class="st8" points="90.8,622.2 94.8,615.6 94.8,659 90.8,652.3 											"/>
										</g>
									</g>
								</g>
							</g>
						</g>
					</g>
				</g>
				<g>
					<path class="st1" d="M629.9,771.7v-72.9c13.2-5,32.3-20.2,32.3-66.2c0-32,0-72.2,0-106.3c0,0,0-32.1,0-72.7
						c0-34.2,0-74.3,0-106.3c0-45.9-19.1-61.2-32.3-66.2v-72.9c0-23.4-19-42.4-42.4-42.4c-23.4,0-42.3,19-42.3,42.4v72.9
						c-13.2,5-32.3,20.2-32.3,66.2c0,32,0,72.2,0,106.3c0,40.6,0,72.7,0,72.7c0,34.2,0,74.3,0,106.3c0,45.9,19.1,61.2,32.3,66.2
						v72.9c0,23.4,19,42.4,42.3,42.4C610.9,814.1,629.9,795.1,629.9,771.7z"/>
					<g>
						<g>
							<path class="st2" d="M556.4,233.5c0,0,8.1-10.4,15.3-11.4c7.1-1,33.6,0.8,33.6,0.8s11.2,4.7,13.2,10.3
								C620.5,238.8,556.4,233.5,556.4,233.5z"/>
							<polygon class="st2" points="569.8,264.4 567.6,244.8 607.9,244.8 605.4,264.4 							"/>
							<g>
								<path class="st3" d="M605.4,266.6c0,1.4-1.1,2.5-2.5,2.5h-30.5c-1.4,0-2.5-1.1-2.5-2.5v-48c0-1.4,1.1-2.5,2.5-2.5h30.5
									c1.4,0,2.5,1.1,2.5,2.5V266.6z"/>
								<ellipse class="st4" cx="587.6" cy="246.6" rx="8.2" ry="17.7"/>
								<g>
									<g>
										<circle class="st5" cx="574.5" cy="261.7" r="2.7"/>
										<circle cx="574.5" cy="261.7" r="1.4"/>
									</g>
									<g>
										<circle class="st5" cx="600.6" cy="261.7" r="2.7"/>
										<circle cx="600.6" cy="261.7" r="1.4"/>
									</g>
								</g>
								<path class="st3" d="M605.3,219.4c0-5.9-11.3-12.9-11.3-12.9h-5.8h-1.3h-5.8c0,0-11.3,7-11.3,12.9c0,5.9,0,20.5,0,20.5
									l17.7-1.5l17.7,1.5C605.3,239.9,605.3,225.4,605.3,219.4z"/>
								<path class="st2" d="M605.3,222.8c0-5-11.3-10.8-11.3-10.8h-5.8h-1.3h-5.8c0,0-11.3,5.8-11.3,10.8c0,5,0,17.1,0,17.1
									l17.7-1.2l17.7,1.2C605.3,239.9,605.3,227.8,605.3,222.8z"/>
								<path class="st4" d="M620.5,233.5c0,0-0.7,0-2-0.3c-1.9-1.9-5.3-4.5-10.7-6.5c-0.8-0.7-1.5-1.6-2.3-2.5
									c-8.1-9.3-13-8.4-13-8.4h-4.4h-1h-4.4c0,0-4.9-0.9-13,8.4c-0.8,0.9-1.6,1.7-2.3,2.5c-5.5,2-8.8,4.6-10.7,6.5
									c-1.3,0.3-2,0.3-2,0.3l1.6,0.1c-1.1,1.2-1.6,2-1.6,2l21.8,2.7c0,0,1-1.4,2.1-3.3l8.6,0.5v0.1l0.5,0l0.5,0v-0.1l8.6-0.5
									c1.1,1.9,2.1,3.3,2.1,3.3l21.8-2.7c0,0-0.5-0.8-1.6-2L620.5,233.5z"/>
								<path class="st3" d="M615.1,234.3c0,0-0.6,0-1.7-0.3c-1.6-1.6-4.4-3.8-9-5.4c-0.6-0.6-1.3-1.3-2-2.1c-6.8-7.8-10.9-7-10.9-7
									H588h-0.8h-3.6c0,0-4.1-0.8-10.9,7c-0.7,0.8-1.3,1.4-2,2.1c-4.6,1.6-7.4,3.8-9,5.4c-1.1,0.3-1.7,0.3-1.7,0.3l1.3,0.1
									c-0.9,1-1.3,1.7-1.3,1.7l18.2,2.2c0,0,0.8-1.2,1.7-2.7l7.2,0.5v0.1l0.4,0l0.4,0V236l7.2-0.5c0.9,1.6,1.7,2.7,1.7,2.7
									l18.2-2.2c0,0-0.4-0.7-1.3-1.7L615.1,234.3z"/>
								<g>
									<ellipse class="st4" cx="587.6" cy="244.8" rx="8.2" ry="5.1"/>
									<rect x="579.3" y="227.1" class="st4" width="16.5" height="17.7"/>
									<ellipse class="st2" cx="587.6" cy="227.1" rx="8.2" ry="5.1"/>
								</g>
								<rect x="535.7" y="233.5" class="st6" width="103.8" height="11.6"/>
								<g>
									<g>
										<rect x="511.6" y="214.4" class="st7" width="21.8" height="49.7"/>
										<g>
											<polygon class="st8" points="507,256.5 511.6,264.1 511.6,214.4 507,222 											"/>
											<polygon class="st8" points="538,256.5 533.4,264.1 533.4,214.4 538,222 											"/>
										</g>
									</g>
									<g>
										<rect x="641.8" y="214.4" class="st7" width="21.8" height="49.7"/>
										<g>
											<polygon class="st8" points="637.1,256.5 641.8,264.1 641.8,214.4 637.1,222 											"/>
											<polygon class="st8" points="668.2,256.5 663.5,264.1 663.5,214.4 668.2,222 											"/>
										</g>
									</g>
								</g>
							</g>
						</g>
						<g>
							<path class="st2" d="M618.7,746.5c0,0-8.1,10.4-15.3,11.4c-7.1,1-33.6-0.8-33.6-0.8s-11.2-4.7-13.2-10.3
								C554.6,741.2,618.7,746.5,618.7,746.5z"/>
							<polygon class="st2" points="605.4,715.6 607.5,735.2 567.3,735.2 569.8,715.6 							"/>
							<g>
								<path class="st3" d="M569.8,713.4c0-1.4,1.1-2.5,2.5-2.5h30.5c1.4,0,2.5,1.1,2.5,2.5v48c0,1.4-1.1,2.5-2.5,2.5h-30.5
									c-1.4,0-2.5-1.1-2.5-2.5V713.4z"/>
								<ellipse class="st4" cx="587.6" cy="733.4" rx="8.2" ry="17.7"/>
								<g>
									<g>
										<circle class="st5" cx="600.6" cy="718.3" r="2.7"/>
										<circle cx="600.6" cy="718.3" r="1.4"/>
									</g>
									<g>
										<circle class="st5" cx="574.5" cy="718.3" r="2.7"/>
										<circle cx="574.5" cy="718.3" r="1.4"/>
									</g>
								</g>
								<path class="st3" d="M569.8,760.6c0,5.9,11.3,12.9,11.3,12.9h5.8h1.3h5.8c0,0,11.3-7,11.3-12.9c0-5.9,0-20.5,0-20.5
									l-17.7,1.5l-17.7-1.5C569.8,740.1,569.8,754.6,569.8,760.6z"/>
								<path class="st2" d="M569.8,757.2c0,5,11.3,10.8,11.3,10.8h5.8h1.3h5.8c0,0,11.3-5.8,11.3-10.8c0-5,0-17.1,0-17.1l-17.7,1.2
									l-17.7-1.2C569.8,740.1,569.8,752.2,569.8,757.2z"/>
								<path class="st4" d="M554.6,746.5c0,0,0.7,0,2,0.3c1.9,1.9,5.3,4.5,10.7,6.5c0.8,0.7,1.5,1.6,2.3,2.5c8.1,9.3,13,8.4,13,8.4
									h4.4h1h4.4c0,0,4.9,0.9,13-8.4c0.8-0.9,1.6-1.7,2.3-2.5c5.5-2,8.8-4.6,10.7-6.5c1.3-0.3,2-0.3,2-0.3l-1.6-0.1
									c1.1-1.2,1.6-2,1.6-2l-21.8-2.7c0,0-1,1.4-2.1,3.3l-8.6-0.5v-0.1l-0.5,0l-0.5,0v0.1l-8.6,0.5c-1.1-1.9-2.1-3.3-2.1-3.3
									l-21.8,2.7c0,0,0.5,0.8,1.6,2L554.6,746.5z"/>
								<path class="st3" d="M560,745.7c0,0,0.6,0,1.7,0.3c1.6,1.6,4.4,3.8,9,5.4c0.6,0.6,1.3,1.3,2,2.1c6.8,7.8,10.9,7,10.9,7h3.6
									h0.8h3.6c0,0,4.1,0.8,10.9-7c0.7-0.8,1.3-1.4,2-2.1c4.6-1.6,7.4-3.8,9-5.4c1.1-0.3,1.7-0.3,1.7-0.3l-1.3-0.1
									c0.9-1,1.3-1.7,1.3-1.7l-18.2-2.2c0,0-0.8,1.2-1.7,2.7L588,744V744l-0.4,0l-0.4,0v0.1l-7.2,0.5c-0.9-1.6-1.7-2.7-1.7-2.7
									L560,744c0,0,0.4,0.7,1.3,1.7L560,745.7z"/>
								<g>
									<ellipse class="st4" cx="587.6" cy="735.2" rx="8.2" ry="5.1"/>
									<rect x="579.3" y="735.2" class="st4" width="16.5" height="17.7"/>
									<ellipse class="st2" cx="587.6" cy="752.9" rx="8.2" ry="5.1"/>
								</g>
								<rect x="535.7" y="734.9" class="st6" width="103.8" height="11.6"/>
								<g>
									<g>
										<rect x="641.8" y="715.9" class="st7" width="21.8" height="49.7"/>
										<g>
											<polygon class="st8" points="668.2,723.5 663.5,715.9 663.5,765.6 668.2,758 											"/>
											<polygon class="st8" points="637.1,723.5 641.8,715.9 641.8,765.6 637.1,758 											"/>
										</g>
									</g>
									<g>
										<rect x="511.6" y="715.9" class="st7" width="21.8" height="49.7"/>
										<g>
											<polygon class="st8" points="538,723.5 533.4,715.9 533.4,765.6 538,758 											"/>
											<polygon class="st8" points="507,723.5 511.6,715.9 511.6,765.6 507,758 											"/>
										</g>
									</g>
								</g>
							</g>
						</g>
					</g>
				</g>
			</g>
		</g>
		<g>
			<g>
				<path class="st2" d="M1062.1,167.6c0,0-8.2-10.5-15.4-11.6c-7.2-1-34,0.8-34,0.8s-11.4,4.8-13.4,10.5
					C997.2,173,1062.1,167.6,1062.1,167.6z"/>
				<polygon class="st2" points="1048.6,198.9 1050.8,179.1 1010,179.1 1012.5,198.9 				"/>
				<g>
					<path class="st3" d="M1012.5,201.1c0,1.4,1.1,2.6,2.6,2.6h30.9c1.4,0,2.6-1.1,2.6-2.6v-48.7c0-1.4-1.1-2.6-2.6-2.6h-30.9
						c-1.4,0-2.6,1.1-2.6,2.6V201.1z"/>
					<ellipse class="st4" cx="1030.5" cy="180.9" rx="8.3" ry="18"/>
					<g>
						<g>
							<circle class="st5" cx="1043.8" cy="196.2" r="2.7"/>
							<circle cx="1043.8" cy="196.2" r="1.4"/>
						</g>
						<g>
							<circle class="st5" cx="1017.3" cy="196.2" r="2.7"/>
							<circle cx="1017.3" cy="196.2" r="1.4"/>
						</g>
					</g>
					<path class="st3" d="M1012.6,153.4c0-6,11.4-13.1,11.4-13.1h5.8h1.3h5.8c0,0,11.4,7.1,11.4,13.1c0,6,0,20.7,0,20.7l-17.9-1.5
						l-17.9,1.5C1012.6,174.1,1012.6,159.4,1012.6,153.4z"/>
					<path class="st2" d="M1012.6,156.8c0-5,11.4-10.9,11.4-10.9h5.8h1.3h5.8c0,0,11.4,5.9,11.4,10.9c0,5,0,17.3,0,17.3l-17.9-1.2
						l-17.9,1.2C1012.6,174.1,1012.6,161.8,1012.6,156.8z"/>
					<path class="st4" d="M997.2,167.6c0,0,0.7,0,2-0.3c1.9-1.9,5.3-4.6,10.9-6.6c0.8-0.8,1.6-1.6,2.4-2.5
						c8.2-9.4,13.2-8.5,13.2-8.5h4.4h1h4.4c0,0,5-0.9,13.2,8.5c0.8,0.9,1.6,1.7,2.4,2.5c5.5,2,9,4.7,10.9,6.6c1.3,0.3,2,0.3,2,0.3
						l-1.6,0.1c1.1,1.2,1.6,2,1.6,2l-22.1,2.7c0,0-1-1.4-2.1-3.3l-8.7,0.6v0.1l-0.5,0l-0.5,0v-0.1l-8.7-0.6
						c-1.1,1.9-2.1,3.3-2.1,3.3l-22.1-2.7c0,0,0.5-0.8,1.6-2L997.2,167.6z"/>
					<path class="st3" d="M1002.6,168.4c0,0,0.6,0,1.7-0.3c1.6-1.6,4.5-3.8,9.1-5.5c0.6-0.6,1.3-1.3,2-2.1c6.8-7.9,11-7.1,11-7.1
						h3.7h0.8h3.7c0,0,4.2-0.8,11,7.1c0.7,0.8,1.3,1.5,2,2.1c4.6,1.7,7.5,3.9,9.1,5.5c1.1,0.3,1.7,0.3,1.7,0.3l-1.4,0.1
						c1,1,1.4,1.7,1.4,1.7l-18.5,2.3c0,0-0.8-1.2-1.7-2.8l-7.3,0.5v0.1l-0.4,0l-0.4,0v-0.1l-7.3-0.5c-0.9,1.6-1.7,2.8-1.7,2.8
						l-18.5-2.3c0,0,0.4-0.7,1.4-1.7L1002.6,168.4z"/>
					<g>
						<ellipse class="st4" cx="1030.5" cy="179.1" rx="8.3" ry="5.1"/>
						<rect x="1022.2" y="161.2" class="st4" width="16.7" height="18"/>
						<ellipse class="st2" cx="1030.5" cy="161.2" rx="8.3" ry="5.1"/>
					</g>
					<rect x="978" y="167.6" class="st6" width="105.1" height="11.7"/>
					<g>
						<g>
							<rect x="1085.4" y="148.3" class="st7" width="22.1" height="50.3"/>
							<g>
								<polygon class="st8" points="1112.2,190.9 1107.5,198.6 1107.5,148.3 1112.2,156 								"/>
								<polygon class="st8" points="1080.7,190.9 1085.4,198.6 1085.4,148.3 1080.7,156 								"/>
							</g>
						</g>
						<g>
							<rect x="953.6" y="148.3" class="st7" width="22.1" height="50.3"/>
							<g>
								<polygon class="st8" points="980.3,190.9 975.7,198.6 975.7,148.3 980.3,156 								"/>
								<polygon class="st8" points="948.9,190.9 953.6,198.6 953.6,148.3 948.9,156 								"/>
							</g>
						</g>
					</g>
				</g>
			</g>
			<g>
				<path class="st2" d="M999,744.8c0,0,8.2,10.5,15.4,11.6c7.2,1.1,34-0.8,34-0.8s11.4-4.8,13.4-10.5
					C1063.9,739.5,999,744.8,999,744.8z"/>
				<polygon class="st2" points="1012.5,713.6 1010.3,733.3 1051.1,733.3 1048.6,713.6 				"/>
				<g>
					<path class="st3" d="M1048.6,711.3c0-1.4-1.1-2.6-2.6-2.6h-30.9c-1.4,0-2.6,1.1-2.6,2.6V760c0,1.4,1.1,2.6,2.6,2.6h30.9
						c1.4,0,2.6-1.1,2.6-2.6V711.3z"/>
					<ellipse class="st4" cx="1030.5" cy="731.5" rx="8.3" ry="18"/>
					<g>
						<g>
							<circle class="st5" cx="1017.3" cy="716.3" r="2.7"/>
							<circle cx="1017.3" cy="716.3" r="1.4"/>
						</g>
						<g>
							<circle class="st5" cx="1043.8" cy="716.3" r="2.7"/>
							<circle cx="1043.8" cy="716.3" r="1.4"/>
						</g>
					</g>
					<path class="st3" d="M1048.5,759c0,6-11.4,13.1-11.4,13.1h-5.8h-1.3h-5.8c0,0-11.4-7.1-11.4-13.1c0-6,0-20.7,0-20.7l17.9,1.5
						l17.9-1.5C1048.5,738.3,1048.5,753,1048.5,759z"/>
					<path class="st2" d="M1048.5,755.6c0,5-11.4,10.9-11.4,10.9h-5.8h-1.3h-5.8c0,0-11.4-5.9-11.4-10.9c0-5,0-17.3,0-17.3l17.9,1.2
						l17.9-1.2C1048.5,738.3,1048.5,750.6,1048.5,755.6z"/>
					<path class="st4" d="M1063.9,744.8c0,0-0.8,0-2,0.3c-1.9,1.9-5.3,4.6-10.9,6.6c-0.8,0.8-1.6,1.6-2.4,2.5
						c-8.2,9.4-13.2,8.5-13.2,8.5h-4.4h-1h-4.4c0,0-5,0.9-13.2-8.5c-0.8-0.9-1.6-1.7-2.4-2.5c-5.5-2-9-4.7-10.9-6.6
						c-1.3-0.3-2-0.3-2-0.3l1.6-0.1c-1.1-1.2-1.6-2-1.6-2l22.1-2.7c0,0,1,1.4,2.1,3.3l8.7-0.6v-0.1l0.5,0l0.5,0v0.1l8.7,0.6
						c1.1-1.9,2.1-3.3,2.1-3.3l22.1,2.7c0,0-0.5,0.8-1.6,2L1063.9,744.8z"/>
					<path class="st3" d="M1058.5,744c0,0-0.6,0-1.7,0.3c-1.6,1.6-4.5,3.8-9.1,5.5c-0.7,0.6-1.3,1.3-2,2.1c-6.8,7.9-11,7.1-11,7.1
						h-3.7h-0.8h-3.7c0,0-4.2,0.8-11-7.1c-0.7-0.8-1.3-1.5-2-2.1c-4.6-1.7-7.5-3.9-9.1-5.5c-1.1-0.3-1.7-0.3-1.7-0.3l1.4-0.1
						c-1-1-1.4-1.7-1.4-1.7l18.5-2.3c0,0,0.8,1.2,1.7,2.8l7.3-0.5v-0.1l0.4,0l0.4,0v0.1l7.3,0.5c0.9-1.6,1.7-2.8,1.7-2.8l18.5,2.3
						c0,0-0.4,0.7-1.4,1.7L1058.5,744z"/>
					<g>
						<ellipse class="st4" cx="1030.5" cy="733.3" rx="8.3" ry="5.1"/>
						<rect x="1022.2" y="733.3" class="st4" width="16.7" height="18"/>
						<ellipse class="st2" cx="1030.5" cy="751.3" rx="8.3" ry="5.1"/>
					</g>
					<rect x="978" y="733.1" class="st6" width="105.1" height="11.7"/>
					<g>
						<g>
							<rect x="953.6" y="713.8" class="st7" width="22.1" height="50.3"/>
							<g>
								<polygon class="st8" points="948.9,721.5 953.6,713.8 953.6,764.1 948.9,756.4 								"/>
								<polygon class="st8" points="980.3,721.5 975.7,713.8 975.7,764.1 980.3,756.4 								"/>
							</g>
						</g>
						<g>
							<rect x="1085.4" y="713.8" class="st7" width="22.1" height="50.3"/>
							<g>
								<polygon class="st8" points="1080.7,721.5 1085.4,713.8 1085.4,764.1 1080.7,756.4 								"/>
								<polygon class="st8" points="1112.2,721.5 1107.5,713.8 1107.5,764.1 1112.2,756.4 								"/>
							</g>
						</g>
					</g>
				</g>
			</g>
			<path class="st2" d="M1030.5,110.8c0,0,80,26.2,80,332.5c0,239.8-48.7,375.1-70,417.9c-5.9,11.9-10,6.9-10,6.9s-4.1,5-10-6.9
				c-21.3-42.9-70-178.1-70-417.9C950.5,137,1030.5,110.8,1030.5,110.8z"/>
		</g>
		<g>
			<g>
				<g>
					<path class="st2" d="M1266,357.7c0,0-7.1-9.1-13.3-10c-6.2-0.9-29.4,0.7-29.4,0.7s-9.8,4.1-11.6,9
						C1209.9,362.3,1266,357.7,1266,357.7z"/>
					<polygon class="st2" points="1254.3,384.7 1256.2,367.6 1221,367.6 1223.2,384.7 					"/>
					<g>
						<path class="st3" d="M1223.2,386.6c0,1.2,1,2.2,2.2,2.2h26.7c1.2,0,2.2-1,2.2-2.2v-42c0-1.2-1-2.2-2.2-2.2h-26.7
							c-1.2,0-2.2,1-2.2,2.2V386.6z"/>
						<ellipse class="st4" cx="1238.8" cy="369.1" rx="7.2" ry="15.5"/>
						<g>
							<g>
								<circle class="st5" cx="1250.2" cy="382.3" r="2.3"/>
								<circle cx="1250.2" cy="382.3" r="1.2"/>
							</g>
							<g>
								<circle class="st5" cx="1227.3" cy="382.3" r="2.3"/>
								<circle cx="1227.3" cy="382.3" r="1.2"/>
							</g>
						</g>
						<path class="st3" d="M1223.3,345.4c0-5.2,9.9-11.3,9.9-11.3h5h1.1h5c0,0,9.9,6.1,9.9,11.3c0,5.2,0,17.9,0,17.9l-15.5-1.3
							l-15.5,1.3C1223.3,363.3,1223.3,350.6,1223.3,345.4z"/>
						<path class="st2" d="M1223.3,348.3c0-4.3,9.9-9.4,9.9-9.4h5h1.1h5c0,0,9.9,5.1,9.9,9.4c0,4.3,0,14.9,0,14.9l-15.5-1.1
							l-15.5,1.1C1223.3,363.3,1223.3,352.7,1223.3,348.3z"/>
						<path class="st4" d="M1209.9,357.7c0,0,0.7,0,1.8-0.3c1.7-1.7,4.6-4,9.4-5.7c0.7-0.6,1.4-1.4,2-2.2c7.1-8.1,11.4-7.3,11.4-7.3
							h3.8h0.9h3.8c0,0,4.3-0.8,11.4,7.3c0.7,0.8,1.4,1.5,2,2.2c4.8,1.7,7.7,4,9.4,5.7c1.1,0.3,1.8,0.3,1.8,0.3l-1.4,0.1
							c1,1.1,1.4,1.8,1.4,1.8l-19.1,2.3c0,0-0.9-1.2-1.8-2.9l-7.6,0.5v0.1l-0.4,0l-0.4,0v-0.1l-7.6-0.5c-0.9,1.6-1.8,2.9-1.8,2.9
							l-19.1-2.3c0,0,0.4-0.7,1.4-1.8L1209.9,357.7z"/>
						<path class="st3" d="M1214.6,358.3c0,0,0.5,0,1.5-0.2c1.4-1.4,3.9-3.3,7.9-4.7c0.6-0.5,1.1-1.1,1.7-1.8
							c5.9-6.8,9.5-6.1,9.5-6.1h3.2h0.7h3.2c0,0,3.6-0.7,9.5,6.1c0.6,0.7,1.1,1.3,1.7,1.8c4,1.4,6.5,3.4,7.9,4.7
							c0.9,0.2,1.5,0.2,1.5,0.2l-1.2,0.1c0.8,0.9,1.2,1.5,1.2,1.5l-15.9,1.9c0,0-0.7-1-1.5-2.4l-6.3,0.4v0l-0.4,0l-0.4,0v0l-6.3-0.4
							c-0.8,1.4-1.5,2.4-1.5,2.4l-15.9-1.9c0,0,0.4-0.6,1.2-1.5L1214.6,358.3z"/>
						<g>
							<ellipse class="st4" cx="1238.8" cy="367.6" rx="7.2" ry="4.4"/>
							<rect x="1231.5" y="352.1" class="st4" width="14.4" height="15.5"/>
							<ellipse class="st2" cx="1238.8" cy="352.1" rx="7.2" ry="4.4"/>
						</g>
						<rect x="1193.4" y="357.7" class="st6" width="90.7" height="10.1"/>
						<g>
							<g>
								<rect x="1286.1" y="341" class="st7" width="19.1" height="43.4"/>
								<g>
									<polygon class="st8" points="1309.2,377.8 1305.2,384.4 1305.2,341 1309.2,347.7 									"/>
									<polygon class="st8" points="1282.1,377.8 1286.1,384.4 1286.1,341 1282.1,347.7 									"/>
								</g>
							</g>
							<g>
								<rect x="1172.3" y="341" class="st7" width="19.1" height="43.4"/>
								<g>
									<polygon class="st8" points="1195.4,377.8 1191.4,384.4 1191.4,341 1195.4,347.7 									"/>
									<polygon class="st8" points="1168.3,377.8 1172.3,384.4 1172.3,341 1168.3,347.7 									"/>
								</g>
							</g>
						</g>
					</g>
				</g>
				<g>
					<path class="st2" d="M1211.5,642.3c0,0,7.1,9.1,13.3,10c6.2,0.9,29.4-0.7,29.4-0.7s9.8-4.1,11.6-9
						C1267.6,637.7,1211.5,642.3,1211.5,642.3z"/>
					<polygon class="st2" points="1223.2,615.3 1221.3,632.4 1256.5,632.4 1254.3,615.3 					"/>
					<g>
						<path class="st3" d="M1254.3,613.4c0-1.2-1-2.2-2.2-2.2h-26.7c-1.2,0-2.2,1-2.2,2.2v42c0,1.2,1,2.2,2.2,2.2h26.7
							c1.2,0,2.2-1,2.2-2.2V613.4z"/>
						<ellipse class="st4" cx="1238.8" cy="630.9" rx="7.2" ry="15.5"/>
						<g>
							<g>
								<circle class="st5" cx="1227.3" cy="617.7" r="2.3"/>
								<circle cx="1227.3" cy="617.7" r="1.2"/>
							</g>
							<g>
								<circle class="st5" cx="1250.2" cy="617.7" r="2.3"/>
								<circle cx="1250.2" cy="617.7" r="1.2"/>
							</g>
						</g>
						<path class="st3" d="M1254.2,654.6c0,5.2-9.9,11.3-9.9,11.3h-5h-1.1h-5c0,0-9.9-6.1-9.9-11.3c0-5.2,0-17.9,0-17.9l15.5,1.3
							l15.5-1.3C1254.2,636.7,1254.2,649.4,1254.2,654.6z"/>
						<path class="st2" d="M1254.2,651.7c0,4.3-9.9,9.4-9.9,9.4h-5h-1.1h-5c0,0-9.9-5.1-9.9-9.4c0-4.3,0-14.9,0-14.9l15.5,1.1
							l15.5-1.1C1254.2,636.7,1254.2,647.3,1254.2,651.7z"/>
						<path class="st4" d="M1267.6,642.3c0,0-0.7,0-1.8,0.3c-1.7,1.7-4.6,4-9.4,5.7c-0.7,0.6-1.4,1.4-2,2.2
							c-7.1,8.1-11.4,7.3-11.4,7.3h-3.8h-0.9h-3.8c0,0-4.3,0.8-11.4-7.3c-0.7-0.8-1.4-1.5-2-2.2c-4.8-1.7-7.7-4-9.4-5.7
							c-1.1-0.3-1.8-0.3-1.8-0.3l1.4-0.1c-1-1.1-1.4-1.8-1.4-1.8l19.1-2.3c0,0,0.9,1.2,1.8,2.9l7.6-0.5v-0.1l0.4,0l0.4,0v0.1
							l7.6,0.5c0.9-1.6,1.8-2.9,1.8-2.9l19.1,2.3c0,0-0.4,0.7-1.4,1.8L1267.6,642.3z"/>
						<path class="st3" d="M1262.9,641.7c0,0-0.5,0-1.5,0.2c-1.4,1.4-3.9,3.3-7.9,4.7c-0.6,0.5-1.1,1.1-1.7,1.8
							c-5.9,6.8-9.5,6.1-9.5,6.1h-3.2h-0.7h-3.2c0,0-3.6,0.7-9.5-6.1c-0.6-0.7-1.1-1.3-1.7-1.8c-4-1.4-6.5-3.4-7.9-4.7
							c-0.9-0.2-1.5-0.2-1.5-0.2l1.2-0.1c-0.8-0.9-1.2-1.5-1.2-1.5l15.9-1.9c0,0,0.7,1,1.5,2.4l6.3-0.4v0l0.4,0l0.4,0v0l6.3,0.4
							c0.8-1.4,1.5-2.4,1.5-2.4l15.9,1.9c0,0-0.4,0.6-1.2,1.5L1262.9,641.7z"/>
						<g>
							<ellipse class="st4" cx="1238.8" cy="632.4" rx="7.2" ry="4.4"/>
							<rect x="1231.5" y="632.4" class="st4" width="14.4" height="15.5"/>
							<ellipse class="st2" cx="1238.8" cy="647.9" rx="7.2" ry="4.4"/>
						</g>
						<rect x="1193.4" y="632.2" class="st6" width="90.7" height="10.1"/>
						<g>
							<g>
								<rect x="1172.3" y="615.6" class="st7" width="19.1" height="43.4"/>
								<g>
									<polygon class="st8" points="1168.3,622.2 1172.3,615.6 1172.3,659 1168.3,652.3 									"/>
									<polygon class="st8" points="1195.4,622.2 1191.4,615.6 1191.4,659 1195.4,652.3 									"/>
								</g>
							</g>
							<g>
								<rect x="1286.1" y="615.6" class="st7" width="19.1" height="43.4"/>
								<g>
									<polygon class="st8" points="1282.1,622.2 1286.1,615.6 1286.1,659 1282.1,652.3 									"/>
									<polygon class="st8" points="1309.2,622.2 1305.2,615.6 1305.2,659 1309.2,652.3 									"/>
								</g>
							</g>
						</g>
					</g>
				</g>
			</g>
			<path class="st2" d="M1184.6,684.2c-11-22.8,11.8-41.9,11.8-87.9c0-98.8-18.6-71.7-18.6-189.4s60.9-129.9,60.9-129.9
				s60.9,12.2,60.9,129.9c0,117.7-18.6,90.6-18.6,189.4c0,46,22.8,65.2,11.8,87.9c-10.8,22.5-54.1,18.7-54.1,18.7
				S1195.5,706.7,1184.6,684.2z"/>
		</g>
		<g>
			<g>
				<g>
					<path class="st2" d="M843.6,233.5c0,0-8.1-10.4-15.3-11.4c-7.1-1-33.6,0.8-33.6,0.8s-11.2,4.7-13.2,10.3
						C779.5,238.8,843.6,233.5,843.6,233.5z"/>
					<polygon class="st2" points="830.2,264.4 832.4,244.8 792.1,244.8 794.6,264.4 					"/>
					<g>
						<path class="st3" d="M794.6,266.6c0,1.4,1.1,2.5,2.5,2.5h30.5c1.4,0,2.5-1.1,2.5-2.5v-48c0-1.4-1.1-2.5-2.5-2.5h-30.5
							c-1.4,0-2.5,1.1-2.5,2.5V266.6z"/>
						<ellipse class="st4" cx="812.4" cy="246.6" rx="8.2" ry="17.7"/>
						<g>
							<g>
								<circle class="st5" cx="825.5" cy="261.7" r="2.7"/>
								<circle cx="825.5" cy="261.7" r="1.4"/>
							</g>
							<g>
								<circle class="st5" cx="799.4" cy="261.7" r="2.7"/>
								<circle cx="799.4" cy="261.7" r="1.4"/>
							</g>
						</g>
						<path class="st3" d="M794.7,219.4c0-5.9,11.3-12.9,11.3-12.9h5.8h1.3h5.8c0,0,11.3,7,11.3,12.9c0,5.9,0,20.5,0,20.5l-17.7-1.5
							l-17.7,1.5C794.7,239.9,794.7,225.4,794.7,219.4z"/>
						<path class="st2" d="M794.7,222.8c0-5,11.3-10.8,11.3-10.8h5.8h1.3h5.8c0,0,11.3,5.8,11.3,10.8c0,5,0,17.1,0,17.1l-17.7-1.2
							l-17.7,1.2C794.7,239.9,794.7,227.8,794.7,222.8z"/>
						<path class="st4" d="M779.5,233.5c0,0,0.7,0,2-0.3c1.9-1.9,5.3-4.5,10.7-6.5c0.8-0.7,1.5-1.6,2.3-2.5c8.1-9.3,13-8.4,13-8.4
							h4.4h1h4.4c0,0,4.9-0.9,13,8.4c0.8,0.9,1.6,1.7,2.3,2.5c5.5,2,8.8,4.6,10.7,6.5c1.3,0.3,2,0.3,2,0.3l-1.6,0.1
							c1.1,1.2,1.6,2,1.6,2l-21.8,2.7c0,0-1-1.4-2.1-3.3l-8.6,0.5v0.1l-0.5,0l-0.5,0v-0.1l-8.6-0.5c-1.1,1.9-2.1,3.3-2.1,3.3
							l-21.8-2.7c0,0,0.5-0.8,1.6-2L779.5,233.5z"/>
						<path class="st3" d="M784.9,234.3c0,0,0.6,0,1.7-0.3c1.6-1.6,4.4-3.8,9-5.4c0.6-0.6,1.3-1.3,2-2.1c6.8-7.8,10.9-7,10.9-7h3.6
							h0.8h3.6c0,0,4.1-0.8,10.9,7c0.7,0.8,1.3,1.4,2,2.1c4.6,1.6,7.4,3.8,9,5.4c1.1,0.3,1.7,0.3,1.7,0.3l-1.3,0.1
							c0.9,1,1.3,1.7,1.3,1.7l-18.2,2.2c0,0-0.8-1.2-1.7-2.7l-7.2,0.5v0.1l-0.4,0l-0.4,0V236l-7.2-0.5c-0.9,1.6-1.7,2.7-1.7,2.7
							l-18.2-2.2c0,0,0.4-0.7,1.3-1.7L784.9,234.3z"/>
						<g>
							<ellipse class="st4" cx="812.4" cy="244.8" rx="8.2" ry="5.1"/>
							<rect x="804.2" y="227.1" class="st4" width="16.5" height="17.7"/>
							<ellipse class="st2" cx="812.4" cy="227.1" rx="8.2" ry="5.1"/>
						</g>
						<rect x="760.6" y="233.5" class="st6" width="103.8" height="11.6"/>
						<g>
							<g>
								<rect x="866.6" y="214.4" class="st7" width="21.8" height="49.7"/>
								<g>
									<polygon class="st8" points="893,256.5 888.4,264.1 888.4,214.4 893,222 									"/>
									<polygon class="st8" points="862,256.5 866.6,264.1 866.6,214.4 862,222 									"/>
								</g>
							</g>
							<g>
								<rect x="736.5" y="214.4" class="st7" width="21.8" height="49.7"/>
								<g>
									<polygon class="st8" points="762.9,256.5 758.2,264.1 758.2,214.4 762.9,222 									"/>
									<polygon class="st8" points="731.8,256.5 736.5,264.1 736.5,214.4 731.8,222 									"/>
								</g>
							</g>
						</g>
					</g>
				</g>
				<g>
					<path class="st2" d="M781.3,746.5c0,0,8.1,10.4,15.3,11.4c7.1,1,33.6-0.8,33.6-0.8s11.2-4.7,13.2-10.3
						C845.4,741.2,781.3,746.5,781.3,746.5z"/>
					<polygon class="st2" points="794.6,715.6 792.5,735.2 832.7,735.2 830.2,715.6 					"/>
					<g>
						<path class="st3" d="M830.2,713.4c0-1.4-1.1-2.5-2.5-2.5h-30.5c-1.4,0-2.5,1.1-2.5,2.5v48c0,1.4,1.1,2.5,2.5,2.5h30.5
							c1.4,0,2.5-1.1,2.5-2.5V713.4z"/>
						<ellipse class="st4" cx="812.4" cy="733.4" rx="8.2" ry="17.7"/>
						<g>
							<g>
								<circle class="st5" cx="799.4" cy="718.3" r="2.7"/>
								<circle cx="799.4" cy="718.3" r="1.4"/>
							</g>
							<g>
								<circle class="st5" cx="825.5" cy="718.3" r="2.7"/>
								<circle cx="825.5" cy="718.3" r="1.4"/>
							</g>
						</g>
						<path class="st3" d="M830.2,760.6c0,5.9-11.3,12.9-11.3,12.9h-5.8h-1.3H806c0,0-11.3-7-11.3-12.9c0-5.9,0-20.5,0-20.5
							l17.7,1.5l17.7-1.5C830.2,740.1,830.2,754.6,830.2,760.6z"/>
						<path class="st2" d="M830.2,757.2c0,5-11.3,10.8-11.3,10.8h-5.8h-1.3H806c0,0-11.3-5.8-11.3-10.8c0-5,0-17.1,0-17.1l17.7,1.2
							l17.7-1.2C830.2,740.1,830.2,752.2,830.2,757.2z"/>
						<path class="st4" d="M845.4,746.5c0,0-0.7,0-2,0.3c-1.9,1.9-5.3,4.5-10.7,6.5c-0.8,0.7-1.5,1.6-2.3,2.5
							c-8.1,9.3-13,8.4-13,8.4h-4.4h-1h-4.4c0,0-4.9,0.9-13-8.4c-0.8-0.9-1.6-1.7-2.3-2.5c-5.5-2-8.8-4.6-10.7-6.5
							c-1.3-0.3-2-0.3-2-0.3l1.6-0.1c-1.1-1.2-1.6-2-1.6-2l21.8-2.7c0,0,1,1.4,2.1,3.3l8.6-0.5v-0.1l0.5,0l0.5,0v0.1l8.6,0.5
							c1.1-1.9,2.1-3.3,2.1-3.3l21.8,2.7c0,0-0.5,0.8-1.6,2L845.4,746.5z"/>
						<path class="st3" d="M840,745.7c0,0-0.6,0-1.7,0.3c-1.6,1.6-4.4,3.8-9,5.4c-0.6,0.6-1.3,1.3-2,2.1c-6.8,7.8-10.9,7-10.9,7
							h-3.6H812h-3.6c0,0-4.1,0.8-10.9-7c-0.7-0.8-1.3-1.4-2-2.1c-4.6-1.6-7.4-3.8-9-5.4c-1.1-0.3-1.7-0.3-1.7-0.3l1.3-0.1
							c-0.9-1-1.3-1.7-1.3-1.7l18.2-2.2c0,0,0.8,1.2,1.7,2.7l7.2-0.5V744l0.4,0l0.4,0v0.1l7.2,0.5c0.9-1.6,1.7-2.7,1.7-2.7L840,744
							c0,0-0.4,0.7-1.3,1.7L840,745.7z"/>
						<g>
							<ellipse class="st4" cx="812.4" cy="735.2" rx="8.2" ry="5.1"/>
							<rect x="804.2" y="735.2" class="st4" width="16.5" height="17.7"/>
							<ellipse class="st2" cx="812.4" cy="752.9" rx="8.2" ry="5.1"/>
						</g>
						<rect x="760.6" y="734.9" class="st6" width="103.8" height="11.6"/>
						<g>
							<g>
								<rect x="736.5" y="715.9" class="st7" width="21.8" height="49.7"/>
								<g>
									<polygon class="st8" points="731.8,723.5 736.5,715.9 736.5,765.6 731.8,758 									"/>
									<polygon class="st8" points="762.9,723.5 758.2,715.9 758.2,765.6 762.9,758 									"/>
								</g>
							</g>
							<g>
								<rect x="866.6" y="715.9" class="st7" width="21.8" height="49.7"/>
								<g>
									<polygon class="st8" points="862,723.5 866.6,715.9 866.6,765.6 862,758 									"/>
									<polygon class="st8" points="893,723.5 888.4,715.9 888.4,765.6 893,758 									"/>
								</g>
							</g>
						</g>
					</g>
				</g>
			</g>
			<path class="st2" d="M770.1,771.7v-72.9c-13.2-5-32.3-20.2-32.3-66.2c0-32,0-72.2,0-106.3c0,0,0-32.1,0-72.7
				c0-34.2,0-74.3,0-106.3c0-45.9,19.1-61.2,32.3-66.2v-72.9c0-23.4,19-42.4,42.4-42.4c23.4,0,42.3,19,42.3,42.4v72.9
				c13.2,5,32.3,20.2,32.3,66.2c0,32,0,72.2,0,106.3c0,40.6,0,72.7,0,72.7c0,34.2,0,74.3,0,106.3c0,45.9-19.1,61.2-32.3,66.2v72.9
				c0,23.4-19,42.4-42.3,42.4C789.1,814.1,770.1,795.1,770.1,771.7z"/>
		</g>
		<g>
			<g>
				<path d="M801,721.9c0,2-1.6,3.5-3.5,3.5l0,0c-2,0-3.5-1.6-3.5-3.5l0,0c0-2,1.6-3.5,3.5-3.5l0,0C799.4,718.3,801,719.9,801,721.9
					L801,721.9z"/>
				<path d="M831,721.9c0,2-1.6,3.5-3.5,3.5l0,0c-2,0-3.5-1.6-3.5-3.5l0,0c0-2,1.6-3.5,3.5-3.5l0,0C829.4,718.3,831,719.9,831,721.9
					L831,721.9z"/>
			</g>
			<g>
				<path d="M801,761.9c0,2-1.6,3.5-3.5,3.5l0,0c-2,0-3.5-1.6-3.5-3.5l0,0c0-2,1.6-3.5,3.5-3.5l0,0C799.4,758.3,801,759.9,801,761.9
					L801,761.9z"/>
				<path d="M831,761.9c0,2-1.6,3.5-3.5,3.5l0,0c-2,0-3.5-1.6-3.5-3.5l0,0c0-2,1.6-3.5,3.5-3.5l0,0C829.4,758.3,831,759.9,831,761.9
					L831,761.9z"/>
			</g>
		</g>
		<g>
			<g>
				<path d="M1018.9,719.9c0,2-1.6,3.5-3.5,3.5l0,0c-2,0-3.5-1.6-3.5-3.5l0,0c0-2,1.6-3.5,3.5-3.5l0,0
					C1017.3,716.3,1018.9,717.9,1018.9,719.9L1018.9,719.9z"/>
				<path d="M1048.9,719.9c0,2-1.6,3.5-3.5,3.5l0,0c-2,0-3.5-1.6-3.5-3.5l0,0c0-2,1.6-3.5,3.5-3.5l0,0
					C1047.3,716.3,1048.9,717.9,1048.9,719.9L1048.9,719.9z"/>
			</g>
			<g>
				<path d="M1018.9,759.9c0,2-1.6,3.5-3.5,3.5l0,0c-2,0-3.5-1.6-3.5-3.5l0,0c0-2,1.6-3.5,3.5-3.5l0,0
					C1017.3,756.3,1018.9,757.9,1018.9,759.9L1018.9,759.9z"/>
				<path d="M1048.9,759.9c0,2-1.6,3.5-3.5,3.5l0,0c-2,0-3.5-1.6-3.5-3.5l0,0c0-2,1.6-3.5,3.5-3.5l0,0
					C1047.3,756.3,1048.9,757.9,1048.9,759.9L1048.9,759.9z"/>
			</g>
		</g>
		<g>
			<g>
				<path d="M1227.3,617.3c0,2-1.6,3.5-3.5,3.5l0,0c-2,0-3.5-1.6-3.5-3.5l0,0c0-2,1.6-3.5,3.5-3.5l0,0
					C1225.7,613.7,1227.3,615.3,1227.3,617.3L1227.3,617.3z"/>
				<path d="M1257.3,617.3c0,2-1.6,3.5-3.5,3.5l0,0c-2,0-3.5-1.6-3.5-3.5l0,0c0-2,1.6-3.5,3.5-3.5l0,0
					C1255.7,613.7,1257.3,615.3,1257.3,617.3L1257.3,617.3z"/>
			</g>
			<g>
				<path d="M1227.3,657.3c0,2-1.6,3.5-3.5,3.5l0,0c-2,0-3.5-1.6-3.5-3.5l0,0c0-2,1.6-3.5,3.5-3.5l0,0
					C1225.7,653.7,1227.3,655.3,1227.3,657.3L1227.3,657.3z"/>
				<path d="M1257.3,657.3c0,2-1.6,3.5-3.5,3.5l0,0c-2,0-3.5-1.6-3.5-3.5l0,0c0-2,1.6-3.5,3.5-3.5l0,0
					C1255.7,653.7,1257.3,655.3,1257.3,657.3L1257.3,657.3z"/>
			</g>
		</g>
		<g>
			<g>
				<path d="M1227.3,339.8c0,2-1.6,3.5-3.5,3.5l0,0c-2,0-3.5-1.6-3.5-3.5l0,0c0-2,1.6-3.5,3.5-3.5l0,0
					C1225.7,336.3,1227.3,337.9,1227.3,339.8L1227.3,339.8z"/>
				<path d="M1257.3,339.8c0,2-1.6,3.5-3.5,3.5l0,0c-2,0-3.5-1.6-3.5-3.5l0,0c0-2,1.6-3.5,3.5-3.5l0,0
					C1255.7,336.3,1257.3,337.9,1257.3,339.8L1257.3,339.8z"/>
			</g>
			<g>
				<path d="M1227.3,379.8c0,2-1.6,3.5-3.5,3.5l0,0c-2,0-3.5-1.6-3.5-3.5l0,0c0-2,1.6-3.5,3.5-3.5l0,0
					C1225.7,376.3,1227.3,377.9,1227.3,379.8L1227.3,379.8z"/>
				<path d="M1257.3,379.8c0,2-1.6,3.5-3.5,3.5l0,0c-2,0-3.5-1.6-3.5-3.5l0,0c0-2,1.6-3.5,3.5-3.5l0,0
					C1255.7,376.3,1257.3,377.9,1257.3,379.8L1257.3,379.8z"/>
			</g>
		</g>
		<g>
			<g>
				<path d="M1018.9,159.1c0,2-1.6,3.5-3.5,3.5l0,0c-2,0-3.5-1.6-3.5-3.5l0,0c0-2,1.6-3.5,3.5-3.5l0,0
					C1017.3,155.6,1018.9,157.2,1018.9,159.1L1018.9,159.1z"/>
				<path d="M1048.9,159.1c0,2-1.6,3.5-3.5,3.5l0,0c-2,0-3.5-1.6-3.5-3.5l0,0c0-2,1.6-3.5,3.5-3.5l0,0
					C1047.3,155.6,1048.9,157.2,1048.9,159.1L1048.9,159.1z"/>
			</g>
			<g>
				<path d="M1018.9,199.1c0,2-1.6,3.5-3.5,3.5l0,0c-2,0-3.5-1.6-3.5-3.5l0,0c0-2,1.6-3.5,3.5-3.5l0,0
					C1017.3,195.6,1018.9,197.2,1018.9,199.1L1018.9,199.1z"/>
				<path d="M1048.9,199.1c0,2-1.6,3.5-3.5,3.5l0,0c-2,0-3.5-1.6-3.5-3.5l0,0c0-2,1.6-3.5,3.5-3.5l0,0
					C1047.3,195.6,1048.9,197.2,1048.9,199.1L1048.9,199.1z"/>
			</g>
		</g>
		<g>
			<g>
				<path d="M801,219.8c0,2-1.6,3.5-3.5,3.5l0,0c-2,0-3.5-1.6-3.5-3.5l0,0c0-2,1.6-3.5,3.5-3.5l0,0C799.4,216.2,801,217.8,801,219.8
					L801,219.8z"/>
				<path d="M831,219.8c0,2-1.6,3.5-3.5,3.5l0,0c-2,0-3.5-1.6-3.5-3.5l0,0c0-2,1.6-3.5,3.5-3.5l0,0C829.4,216.2,831,217.8,831,219.8
					L831,219.8z"/>
			</g>
			<g>
				<path d="M801,259.8c0,2-1.6,3.5-3.5,3.5l0,0c-2,0-3.5-1.6-3.5-3.5l0,0c0-2,1.6-3.5,3.5-3.5l0,0C799.4,256.2,801,257.8,801,259.8
					L801,259.8z"/>
				<path d="M831,259.8c0,2-1.6,3.5-3.5,3.5l0,0c-2,0-3.5-1.6-3.5-3.5l0,0c0-2,1.6-3.5,3.5-3.5l0,0C829.4,256.2,831,257.8,831,259.8
					L831,259.8z"/>
			</g>
		</g>
	</g>
</g>
</svg>
